<?xml version="1.0" encoding="utf-8"?>
<!-- Generator: Adobe Illustrator 12.0.0, SVG Export Plug-In . SVG Version: 6.00 Build 51448)  -->
<!DOCTYPE svg PUBLIC "-//W3C//DTD SVG 1.1//EN" "http://www.w3.org/Graphics/SVG/1.1/DTD/svg11.dtd" [
	<!ENTITY ns_svg "http://www.w3.org/2000/svg">
	<!ENTITY ns_xlink "http://www.w3.org/1999/xlink">
]>
<svg  version="1.1" id="Layer_1" xmlns="&ns_svg;" xmlns:xlink="&ns_xlink;" width="600" height="600" viewBox="0 0 600 600"
	 overflow="visible" enable-background="new 0 0 600 600" xml:space="preserve">
<g>
	<path d="M0,50C0,22.3857422,22.3852539,0,50,0h500c27.6142578,0,50,22.3857422,50,50v500c0,27.6152344-22.3857422,50-50,50H50
		c-27.6147461,0-50-22.3847656-50-50V50L0,50z"/>
	<path d="M300,300"/>
</g>
<g>
	<path fill-rule="evenodd" clip-rule="evenodd" fill="#FFFFFF" d="M300,10.0024414
		c23.5644531,20.0751953,54.1171875,32.1914063,87.5,32.1914063S451.4355469,30.0756836,475,10l115,115
		c-21.1621094,30.0805664-33.5878906,66.7539063-33.5878906,106.3266602c0,28.4633789,6.4267578,55.4248047,17.9101563,79.512207
		C584.2441406,331.6640625,590,355.3945313,590,380c0,88.3671875-71.6328125,160-160,160h-25.1132813
		C362.5419922,540,324.7509766,559.4960938,300,590c-24.7514648-30.5039063-62.5419922-50-104.8867188-50h-25.1137695
		c-88.3666992,0-160-71.6328125-160-160c0-24.6054688,5.7563477-48.3359375,15.6787109-69.1611328
		c11.4824219-24.0874023,17.9101563-51.0488281,17.9101563-79.512207C43.5883789,191.7539063,31.1616211,155.0805664,10,125L125,10
		c23.5644531,20.0756836,54.1166992,32.1938477,87.5,32.1938477C245.8828125,42.1938477,276.4355469,30.0776367,300,10.0024414z"/>
	
		<path fill-rule="evenodd" clip-rule="evenodd" fill="none" stroke="#000000" stroke-linecap="round" stroke-linejoin="round" stroke-miterlimit="3.863693" d="
		M300,10.0024414c23.5644531,20.0751953,54.1171875,32.1914063,87.5,32.1914063S451.4355469,30.0756836,475,10l115,115
		c-21.1621094,30.0805664-33.5878906,66.7539063-33.5878906,106.3266602c0,28.4633789,6.4267578,55.4248047,17.9101563,79.512207
		C584.2441406,331.6640625,590,355.3945313,590,380c0,88.3671875-71.6328125,160-160,160h-25.1132813
		C362.5419922,540,324.7509766,559.4960938,300,590c-24.7514648-30.5039063-62.5419922-50-104.8867188-50h-25.1137695
		c-88.3666992,0-160-71.6328125-160-160c0-24.6054688,5.7563477-48.3359375,15.6787109-69.1611328
		c11.4824219-24.0874023,17.9101563-51.0488281,17.9101563-79.512207C43.5883789,191.7539063,31.1616211,155.0805664,10,125L125,10
		c23.5644531,20.0756836,54.1166992,32.1938477,87.5,32.1938477C245.8828125,42.1938477,276.4355469,30.0776367,300,10.0024414z"/>
</g>
<g>
	<path fill-rule="evenodd" clip-rule="evenodd" d="M267.5776367,434.8056641H70.1748047
		c0.8657227-32.3232422,8.9467773-61.7607422,24.2426758-88.3115234
		c11.8325195-20.7792969,28.8598633-39.5390625,51.0820313-56.2773438c3.1748047-2.0200195,7.503418-5.050293,12.9873047-9.0908203
		l15.1513672-8.2250977l28.5712891-16.0175781c12.9868164-7.503418,19.4804688-18.0371094,19.4804688-31.6015625
		c0-10.6782227-5.2670898-19.769043-15.8007813-27.2729492c-10.5336914-7.503418-22.871582-11.2553711-37.0131836-11.2553711
		c-30.0141602,0-47.6186523,13.5644531-52.8134766,40.6923828l-45.8876953-10.3891602
		c4.90625-23.9541016,16.2338867-42.7851563,33.9829102-56.4936523c17.7485352-13.7084961,39.3217773-20.5625,64.7182617-20.5625
		c27.4169922,0,50.7216797,8.3691406,69.9135742,25.1079102s28.7880859,37.0854492,28.7880859,61.0390625
		c0,24.2426758-9.8125,45.0209961-29.4375,62.3374023c-3.7514648,3.1748047-7.9365234,5.7719727-12.5541992,7.7924805
		l-14.2856445,9.5234375l-15.1513672,7.7929688l-14.2856445,8.2246094
		c-24.8198242,14.4296875-43.7231445,36.5078125-56.7099609,66.234375h142.4243164V434.8056641z"/>
	<path fill-rule="evenodd" clip-rule="evenodd" d="M529.8251953,290.2167969
		c0,53.96875-11.5439453,94.5166016-34.6318359,121.6445313C478.7431641,430.6210938,456.3759766,440,428.09375,440
		c-38.3837891,0-66.0898438-17.3164063-83.1171875-51.9472656c-13.5644531-27.7060547-20.3466797-60.3183594-20.3466797-97.8359375
		c0-49.9277344,10.5341797-89.1777344,31.6025391-117.7490234c15.8730469-21.6450195,40.5478516-32.4672852,74.0253906-32.4672852
		c36.3632813,0,63.2041016,17.1713867,80.5195313,51.5151367
		C523.4755859,217.4892578,529.8251953,250.3901367,529.8251953,290.2167969z M484.3701172,290.2167969
		c0-34.6318359-5.7714844-61.7607422-17.3154297-81.3852539c-8.3691406-13.8530273-20.9238281-21.2124023-37.6621094-22.078125
		c-21.0683594-1.1547852-36.6523438,10.6782227-46.7539063,35.4980469
		c-7.5039063,18.4702148-11.2548828,41.1254883-11.2548828,67.965332c0,34.6318359,5.7714844,61.4716797,17.3154297,80.5195313
		c8.9472656,15.0078125,22.078125,22.5107422,39.3945313,22.5107422c20.2021484,0,35.2089844-12.265625,45.0214844-36.7958984
		C480.6191406,337.6914063,484.3701172,315.6132813,484.3701172,290.2167969z"/>
</g>
</svg>
